ffmpeg version 3.4.8-0ubuntu0.2 Copyright (c) 2000-2020 the FFmpeg developers
  built with gcc 7 (Ubuntu 7.5.0-3ubuntu1~18.04)
  configuration: --prefix=/usr --extra-version=0ubuntu0.2 --toolchain=hardened --libdir=/usr/lib/x86_64-linux-gnu --incdir=/usr/include/x86_64-linux-gnu --enable-gpl --disable-stripping --enable-avresample --enable-avisynth --enable-gnutls --enable-ladspa --enable-libass --enable-libbluray --enable-libbs2b --enable-libcaca --enable-libcdio --enable-libflite --enable-libfontconfig --enable-libfreetype --enable-libfribidi --enable-libgme --enable-libgsm --enable-libmp3lame --enable-libmysofa --enable-libopenjpeg --enable-libopenmpt --enable-libopus --enable-libpulse --enable-librubberband --enable-librsvg --enable-libshine --enable-libsnappy --enable-libsoxr --enable-libspeex --enable-libssh --enable-libtheora --enable-libtwolame --enable-libvorbis --enable-libvpx --enable-libwavpack --enable-libwebp --enable-libx265 --enable-libxml2 --enable-libxvid --enable-libzmq --enable-libzvbi --enable-omx --enable-openal --enable-opengl --enable-sdl2 --enable-libdc1394 --enable-libdrm --enable-libiec61883 --enable-chromaprint --enable-frei0r --enable-libopencv --enable-libx264 --enable-shared
  libavutil      55. 78.100 / 55. 78.100
  libavcodec     57.107.100 / 57.107.100
  libavformat    57. 83.100 / 57. 83.100
  libavdevice    57. 10.100 / 57. 10.100
  libavfilter     6.107.100 /  6.107.100
  libavresample   3.  7.  0 /  3.  7.  0
  libswscale      4.  8.100 /  4.  8.100
  libswresample   2.  9.100 /  2.  9.100
  libpostproc    54.  7.100 / 54.  7.100
[rawvideo @ 0x55d4f574da20] Estimating duration from bitrate, this may be inaccurate
Input #0, rawvideo, from '../../SVC-Encoder-20220109T061506Z-001/SVC-Encoder/Dataset/RollerCoaster/6f_2x2/tile_yuv/f3_t2_480x480.yuv':
  Duration: 00:00:10.00, start: 0.000000, bitrate: 82944 kb/s
    Stream #0:0: Video: rawvideo (I420 / 0x30323449), yuv420p, 480x480, 82944 kb/s, 30 tbr, 30 tbn, 30 tbc
Stream mapping:
  Stream #0:0 -> #0:0 (rawvideo (native) -> h264 (libx264))
Press [q] to stop, [?] for help
[libx264 @ 0x55d4f575ac60] using cpu capabilities: MMX2 SSE2Fast LZCNT SSSE3 SSE4.2 AVX
[libx264 @ 0x55d4f575ac60] profile High, level 3.0
Output #0, rawvideo, to 'RollerCoaster_f3_t2_480x480_x264_QP_32.h264':
  Metadata:
    encoder         : Lavf57.83.100
    Stream #0:0: Video: h264 (libx264), yuv420p, 480x480, q=-1--1, 30 fps, 30 tbn, 30 tbc
    Metadata:
      encoder         : Lavc57.107.100 libx264
    Side data:
      cpb: bitrate max/min/avg: 0/0/0 buffer size: 0 vbv_delay: -1
frame=  184 fps=0.0 q=38.0 PSNR=Y:nan U:nan V:nan *:nan size=      44kB time=00:00:04.70 bitrate=  76.9kbits/s speed=9.39x    frame=  300 fps=0.0 q=38.0 LPSNR=Y:inf U:inf V:inf *:inf size=      87kB time=00:00:09.93 bitrate=  71.8kbits/s speed=10.9x    
video:87kB audio:0kB subtitle:0kB other streams:0kB global headers:0kB muxing overhead: 0.000000%
[libx264 @ 0x55d4f575ac60] frame I:2     Avg QP:29.73  size: 11932  PSNR Mean Y:40.66 U:45.36 V:43.16 Avg:41.54 Global:41.45
[libx264 @ 0x55d4f575ac60] frame P:77    Avg QP:30.92  size:   533  PSNR Mean Y:39.22 U:44.71 V:42.62 Avg:40.24 Global:40.23
[libx264 @ 0x55d4f575ac60] frame B:221   Avg QP:37.46  size:   110  PSNR Mean Y:39.03 U:44.71 V:42.62 Avg:40.08 Global:40.07
[libx264 @ 0x55d4f575ac60] consecutive B-frames:  0.7%  2.7%  2.0% 94.7%
[libx264 @ 0x55d4f575ac60] mb I  I16..4: 38.2% 46.2% 15.6%
[libx264 @ 0x55d4f575ac60] mb P  I16..4:  0.4%  0.2%  0.0%  P16..4: 18.8%  2.4%  0.5%  0.0%  0.0%    skip:77.6%
[libx264 @ 0x55d4f575ac60] mb B  I16..4:  0.0%  0.0%  0.0%  B16..8: 10.1%  0.1%  0.0%  direct: 0.0%  skip:89.8%  L0:48.3% L1:51.4% BI: 0.3%
[libx264 @ 0x55d4f575ac60] 8x8 transform intra:42.9% inter:81.9%
[libx264 @ 0x55d4f575ac60] coded y,uvDC,uvAC intra: 41.4% 55.5% 20.6% inter: 0.8% 0.7% 0.0%
[libx264 @ 0x55d4f575ac60] i16 v,h,dc,p: 37% 38% 12% 13%
[libx264 @ 0x55d4f575ac60] i8 v,h,dc,ddl,ddr,vr,hd,vl,hu: 20% 23% 22%  6%  4%  4%  6%  6% 10%
[libx264 @ 0x55d4f575ac60] i4 v,h,dc,ddl,ddr,vr,hd,vl,hu: 21% 21% 16% 10%  5%  5%  6%  9%  9%
[libx264 @ 0x55d4f575ac60] i8c dc,h,v,p: 47% 22% 20% 11%
[libx264 @ 0x55d4f575ac60] Weighted P-Frames: Y:2.6% UV:0.0%
[libx264 @ 0x55d4f575ac60] ref P L0: 52.6% 18.5% 19.3%  9.5%  0.1%
[libx264 @ 0x55d4f575ac60] ref B L0: 56.8% 34.2%  9.0%
[libx264 @ 0x55d4f575ac60] ref B L1: 69.5% 30.5%
[libx264 @ 0x55d4f575ac60] PSNR Mean Y:39.090 U:44.712 V:42.619 Avg:40.133 Global:40.117 kb/s:71.36
